<?xml version="1.0" standalone="no"?>
<!DOCTYPE svg PUBLIC "-//W3C//DTD SVG 20010904//EN"
 "http://www.w3.org/TR/2001/REC-SVG-20010904/DTD/svg10.dtd">
<svg version="1.0" xmlns="http://www.w3.org/2000/svg"
 width="185.000000pt" height="185.000000pt" viewBox="0 0 185.000000 185.000000"
 preserveAspectRatio="xMidYMid meet">
<metadata>
Created by potrace 1.16, written by Peter Selinger 2001-2019
</metadata>
<g transform="translate(0.000000,185.000000) scale(0.100000,-0.100000)"
fill="#000000" stroke="none">
<path d="M730 1412 c0 -175 3 -222 15 -238 16 -24 11 -34 -17 -34 -29 0 -20
-12 42 -58 50 -36 128 -125 159 -181 5 -9 11 -14 13 -11 3 3 26 36 52 73 27
38 77 91 113 120 l66 51 -32 8 c-30 8 -31 10 -16 31 12 18 15 60 15 239 l0
218 -205 0 -205 0 0 -218z m375 33 l0 -150 -168 0 -168 0 0 148 c0 81 1 149 1
152 0 3 75 4 168 3 l167 -3 0 -150z m-85 -190 c80 -42 80 -138 0 -180 -36 -19
-122 -19 -158 -1 -62 32 -86 100 -51 142 43 52 146 72 209 39z"/>
<path d="M854 1528 c33 -29 65 -57 73 -61 9 -6 34 10 78 49 36 32 65 59 65 61
0 2 -62 3 -137 3 l-137 0 58 -52z"/>
<path d="M780 1446 l0 -128 38 30 c20 17 52 45 69 64 l33 34 -43 40 c-23 22
-54 50 -69 63 l-28 24 0 -127z"/>
<path d="M1016 1507 l-68 -63 71 -63 71 -63 0 126 c0 69 -1 126 -2 126 -2 -1
-34 -29 -72 -63z"/>
<path d="M867 1373 c-34 -31 -64 -58 -66 -60 -2 -1 58 -3 135 -3 l139 0 -65
60 c-36 32 -68 59 -73 60 -4 0 -35 -25 -70 -57z"/>
<path d="M870 1243 c-99 -52 -64 -160 57 -170 84 -7 155 48 140 110 -16 60
-129 95 -197 60z"/>
<path d="M381 1179 c-90 -18 -166 -83 -196 -170 -20 -55 -19 -172 1 -240 25
-85 71 -155 165 -255 49 -51 91 -104 95 -119 7 -28 1 -109 -10 -136 -6 -12 10
-22 73 -47 134 -54 232 -73 386 -79 102 -4 164 -1 230 11 95 16 224 56 287 87
34 17 37 21 28 45 -6 14 -10 50 -10 80 l0 55 101 105 c77 81 109 122 135 177
166 351 -101 611 -451 438 -95 -47 -175 -117 -230 -200 -22 -33 -42 -60 -45
-61 -3 0 -18 23 -35 51 -71 121 -239 236 -375 258 -74 12 -88 12 -149 0z m850
-565 c112 -18 247 -53 255 -66 12 -19 -5 -19 -72 1 -155 46 -238 56 -474 56
-236 0 -319 -10 -474 -56 -67 -20 -84 -20 -72 -1 7 11 132 46 226 62 178 32
430 34 611 4z m-116 -169 c87 -14 201 -43 260 -65 18 -7 25 -14 19 -20 -7 -7
-31 -3 -70 10 -240 83 -501 84 -756 4 -75 -24 -104 -25 -82 -4 14 13 178 59
269 74 108 19 251 19 360 1z m50 -90 c77 -16 222 -61 245 -75 8 -5 11 -12 8
-16 -4 -4 -49 7 -100 24 -134 44 -243 62 -378 62 -139 0 -248 -19 -378 -65
-53 -19 -98 -33 -100 -30 -25 24 202 98 368 119 62 8 263 -4 335 -19z"/>
</g>
</svg>
