<?xml version="1.0" standalone="no"?>
<!DOCTYPE svg PUBLIC "-//W3C//DTD SVG 20010904//EN"
 "http://www.w3.org/TR/2001/REC-SVG-20010904/DTD/svg10.dtd">
<svg version="1.0" xmlns="http://www.w3.org/2000/svg"
 width="185.000000pt" height="185.000000pt" viewBox="0 0 185.000000 185.000000"
 preserveAspectRatio="xMidYMid meet">
<metadata>
Created by potrace 1.16, written by Peter Selinger 2001-2019
</metadata>
<g transform="translate(0.000000,185.000000) scale(0.100000,-0.100000)"
fill="#000000" stroke="none">
<path d="M835 1752 c-11 -2 -30 -14 -43 -25 -18 -17 -23 -30 -21 -65 3 -38 0
-45 -26 -61 -111 -67 -238 -279 -292 -484 -23 -89 -20 -242 6 -342 25 -93 85
-218 138 -290 l38 -50 -8 -70 c-13 -116 -17 -135 -30 -135 -7 0 -51 13 -97 30
-149 52 -239 36 -377 -66 -62 -46 -68 -60 -17 -39 46 19 88 19 150 0 27 -8 64
-15 81 -15 18 0 80 -16 137 -35 137 -46 231 -48 362 -8 127 38 148 38 239 7
59 -20 107 -28 180 -32 94 -4 106 -2 209 32 60 20 122 36 138 36 16 0 59 8 94
17 52 14 72 15 106 6 24 -6 45 -9 48 -6 10 10 -66 65 -135 99 -94 46 -150 46
-289 -1 -58 -19 -111 -35 -119 -35 -10 0 -19 30 -31 111 l-17 111 43 56 c65
86 133 228 153 316 25 111 17 254 -19 361 -58 169 -167 348 -247 404 -35 25
-37 28 -32 72 9 77 -47 119 -125 94 -28 -8 -53 -62 -45 -94 6 -24 -9 -41 -38
-41 -14 0 -16 8 -11 45 4 38 1 50 -17 69 -24 25 -52 34 -86 28z m294 -176 c38
-20 129 -121 169 -189 155 -260 177 -500 65 -720 -28 -57 -37 -58 -21 -1 7 22
12 94 12 164 -1 101 -6 144 -27 225 -49 187 -163 374 -289 475 -37 29 -52 47
-45 52 20 13 107 9 136 -6z m-197 -348 c-7 -7 -12 -43 -12 -95 l0 -83 84 0
c63 0 87 4 96 15 12 14 16 13 37 -6 28 -28 29 -41 2 -65 -16 -15 -24 -16 -39
-6 -11 7 -55 12 -100 12 l-80 0 0 -93 c0 -60 4 -97 12 -105 10 -10 6 -18 -15
-39 l-27 -28 -27 28 c-21 21 -25 29 -15 39 8 8 12 45 12 105 l0 93 -80 0 c-45
0 -89 -5 -100 -12 -15 -10 -23 -9 -39 6 -27 24 -26 37 2 65 21 19 25 20 37 6
9 -11 33 -15 96 -15 l84 0 0 84 c0 50 -4 88 -11 92 -7 4 0 17 17 35 l28 29 25
-25 c20 -19 23 -27 13 -37z m114 -958 c45 -6 105 -19 135 -29 l54 -18 -70 -23
c-130 -42 -354 -37 -470 11 l-30 12 60 19 c54 17 151 34 215 37 14 0 62 -4
106 -9z"/>
</g>
</svg>
