<?xml version="1.0" standalone="no"?>
<!DOCTYPE svg PUBLIC "-//W3C//DTD SVG 20010904//EN"
 "http://www.w3.org/TR/2001/REC-SVG-20010904/DTD/svg10.dtd">
<svg version="1.0" xmlns="http://www.w3.org/2000/svg"
 width="185.000000pt" height="185.000000pt" viewBox="0 0 185.000000 185.000000"
 preserveAspectRatio="xMidYMid meet">
<metadata>
Created by potrace 1.16, written by Peter Selinger 2001-2019
</metadata>
<g transform="translate(0.000000,185.000000) scale(0.100000,-0.100000)"
fill="#000000" stroke="none">
<path d="M873 1665 c-39 -17 -53 -42 -53 -93 0 -32 6 -45 28 -64 l28 -23 -44
-275 c-25 -151 -46 -277 -48 -279 -9 -10 -27 25 -119 233 l-96 220 17 37 c30
69 -5 129 -76 129 -54 0 -90 -34 -90 -85 0 -38 35 -85 65 -85 9 0 15 -9 15
-22 0 -13 9 -117 20 -233 22 -236 23 -255 12 -255 -4 0 -76 83 -160 184 l-152
185 6 45 c6 41 4 48 -24 75 -41 41 -83 42 -123 2 -51 -51 -27 -130 44 -149 31
-8 34 -15 160 -338 139 -359 153 -411 141 -552 l-6 -82 43 -19 c153 -68 395
-104 546 -82 111 15 309 65 373 93 47 21 48 22 42 57 -4 20 -7 90 -7 156 l1
120 129 322 c129 321 129 321 162 328 41 7 63 38 63 88 0 79 -91 117 -146 62
-22 -22 -25 -33 -22 -76 l3 -51 -150 -184 c-82 -101 -156 -183 -163 -184 -10
0 -12 11 -8 43 3 23 13 119 21 212 21 232 24 255 39 255 7 0 22 10 34 23 31
33 30 96 -1 125 -33 31 -96 30 -125 -1 -26 -28 -30 -92 -7 -117 14 -15 6 -39
-85 -245 -102 -234 -106 -242 -115 -233 -3 3 -25 127 -50 276 l-44 271 29 30
c21 20 30 39 30 61 0 42 -25 87 -52 95 -48 14 -54 14 -85 0z m234 -1021 c118
-17 246 -54 243 -69 -1 -5 -7 -8 -14 -7 -111 33 -210 54 -295 63 -166 18 -377
-3 -517 -51 -56 -20 -72 -20 -60 -2 8 13 151 53 241 68 113 17 279 17 402 -2z
m42 -209 c104 -20 221 -56 221 -68 0 -11 -11 -9 -145 28 -82 22 -128 28 -255
32 -169 6 -265 -6 -418 -50 -45 -13 -85 -20 -88 -16 -7 12 31 26 152 55 190
46 360 52 533 19z m-14 -70 c109 -19 245 -64 245 -80 0 -9 -26 -4 -84 16 -227
78 -515 76 -755 -5 -72 -24 -96 -26 -75 -7 17 17 161 61 246 75 113 19 316 19
423 1z"/>
</g>
</svg>
