<?xml version="1.0" standalone="no"?>
<!DOCTYPE svg PUBLIC "-//W3C//DTD SVG 20010904//EN"
 "http://www.w3.org/TR/2001/REC-SVG-20010904/DTD/svg10.dtd">
<svg version="1.0" xmlns="http://www.w3.org/2000/svg"
 width="155.000000pt" height="185.000000pt" viewBox="0 0 155.000000 185.000000"
 preserveAspectRatio="xMidYMid meet">
<metadata>
Created by potrace 1.16, written by Peter Selinger 2001-2019
</metadata>
<g transform="translate(0.000000,185.000000) scale(0.100000,-0.100000)"
fill="#000000" stroke="none">
<path d="M730 1721 c-51 -16 -108 -51 -138 -86 -51 -58 -65 -94 -70 -181 -5
-94 12 -146 71 -211 l36 -39 -70 -12 c-92 -16 -129 -35 -129 -67 0 -33 37 -51
146 -70 48 -8 92 -21 97 -28 14 -20 -1 -323 -22 -422 -29 -141 -40 -160 -97
-174 -144 -36 -254 -125 -254 -206 l0 -25 508 2 507 3 -3 30 c-9 79 -92 145
-237 190 l-70 21 -22 71 c-12 38 -27 108 -33 154 -13 88 -19 354 -8 364 3 3
37 10 74 16 219 29 225 118 12 146 l-48 6 35 35 c80 83 103 212 55 320 -55
125 -213 201 -340 163z"/>
</g>
</svg>
