<?xml version="1.0" standalone="no"?>
<!DOCTYPE svg PUBLIC "-//W3C//DTD SVG 20010904//EN"
 "http://www.w3.org/TR/2001/REC-SVG-20010904/DTD/svg10.dtd">
<svg version="1.0" xmlns="http://www.w3.org/2000/svg"
 width="185.000000pt" height="185.000000pt" viewBox="0 0 185.000000 185.000000"
 preserveAspectRatio="xMidYMid meet">
<metadata>
Created by potrace 1.16, written by Peter Selinger 2001-2019
</metadata>
<g transform="translate(0.000000,185.000000) scale(0.100000,-0.100000)"
fill="#000000" stroke="none">
<path d="M1012 1658 c-6 -6 -19 -45 -29 -86 -16 -68 -20 -76 -57 -99 -39 -25
-40 -25 -95 -10 l-55 15 -59 -46 c-33 -26 -66 -52 -73 -58 -8 -6 -14 -19 -14
-28 0 -9 -8 -16 -19 -16 -23 0 -121 -107 -121 -132 0 -10 -7 -18 -15 -18 -17
0 -115 -127 -115 -150 0 -9 -9 -23 -20 -32 -27 -23 -91 -154 -84 -171 3 -8 -1
-17 -9 -20 -21 -8 -79 -163 -75 -199 1 -16 -3 -32 -10 -37 -7 -4 -20 -48 -29
-97 -10 -49 -21 -92 -25 -95 -5 -3 1 -14 12 -24 20 -18 20 -18 0 -32 -18 -13
-20 -25 -20 -119 l0 -104 705 0 c388 0 705 2 705 5 0 16 -54 109 -81 140 -18
20 -78 72 -134 115 -124 96 -200 177 -233 248 -24 53 -51 186 -40 198 4 3 16
0 29 -6 13 -7 46 -10 82 -8 59 4 61 4 98 -33 21 -21 61 -53 90 -73 28 -19 74
-62 101 -95 50 -63 79 -78 126 -67 15 4 44 11 64 15 104 23 163 112 138 210
-6 25 -49 111 -94 191 -119 208 -136 244 -136 290 0 56 -29 108 -108 191 -67
71 -67 72 -82 158 -13 76 -18 86 -37 89 -17 3 -32 -11 -68 -60 -26 -35 -50
-64 -55 -66 -4 -2 -33 27 -65 63 -58 66 -72 74 -93 53z m-172 -277 c0 -6 -17
-23 -37 -38 -20 -15 -73 -69 -118 -119 -254 -286 -392 -608 -421 -986 -3 -49
-11 -88 -17 -88 -6 0 -8 28 -4 80 5 79 5 80 -18 80 -32 0 -56 10 -49 21 3 5
21 7 40 3 25 -5 34 -3 34 7 0 8 9 56 19 107 l18 92 -30 8 c-41 10 -50 36 -10
26 15 -4 32 -7 36 -8 7 -1 76 174 77 196 0 3 -14 9 -30 13 -17 4 -30 13 -30
21 0 10 6 11 26 4 14 -6 31 -10 37 -10 7 0 31 38 54 84 l42 85 -35 11 c-21 7
-32 16 -27 21 5 5 22 4 41 -3 17 -7 33 -10 35 -8 21 28 97 143 95 145 -2 1
-13 8 -26 14 -12 7 -20 16 -17 21 4 6 17 4 34 -4 28 -15 28 -15 84 53 l56 68
-25 13 c-13 7 -24 17 -24 22 0 11 11 10 40 -6 23 -13 27 -11 79 35 55 49 71
58 71 40z m432 -61 c105 -30 122 -178 18 -155 -41 9 -80 58 -80 100 0 19 -5
37 -10 40 -14 9 -2 25 18 25 9 0 34 -5 54 -10z"/>
</g>
</svg>
